<svg xmlns="http://www.w3.org/2000/svg" viewBox="0 0 1440 320"><path fill="#f3f4f5" fill-opacity="1" d="M0,192L30,181.3C60,171,120,149,180,165.3C240,181,300,235,360,224C420,213,480,139,540,122.7C600,107,660,149,720,192C780,235,840,277,900,256C960,235,1020,149,1080,122.7C1140,96,1200,128,1260,165.3C1320,203,1380,245,1410,266.7L1440,288L1440,0L1410,0C1380,0,1320,0,1260,0C1200,0,1140,0,1080,0C1020,0,960,0,900,0C840,0,780,0,720,0C660,0,600,0,540,0C480,0,420,0,360,0C300,0,240,0,180,0C120,0,60,0,30,0L0,0Z"></path></svg>