<svg xmlns="http://www.w3.org/2000/svg" viewBox="0 0 1440 320"><path fill="#ffffff" fill-opacity="1" d="M0,192L24,160C48,128,96,64,144,58.7C192,53,240,107,288,112C336,117,384,75,432,64C480,53,528,75,576,101.3C624,128,672,160,720,186.7C768,213,816,235,864,213.3C912,192,960,128,1008,133.3C1056,139,1104,213,1152,245.3C1200,277,1248,267,1296,240C1344,213,1392,171,1416,149.3L1440,128L1440,320L1416,320C1392,320,1344,320,1296,320C1248,320,1200,320,1152,320C1104,320,1056,320,1008,320C960,320,912,320,864,320C816,320,768,320,720,320C672,320,624,320,576,320C528,320,480,320,432,320C384,320,336,320,288,320C240,320,192,320,144,320C96,320,48,320,24,320L0,320Z"></path></svg>